# xmcd CD database file
#
# Track frame offsets:
#	150
#	3574
#	44856
#	70468
#	94721
#	163820
#	200207
#	223929
#
# Disc length: 3392 seconds
#
# Revision: 0
# Processed by: cddbd v1.5.2PL0 Copyright (c) Steve Scherf et al.
# Submitted via: CDex 1.70beta2
#
DISCID=810d3e08
DTITLE=Marco von Orelli 6 - Close Ties On Hidden Lanes
DYEAR=2012
DGENRE=Jazz
TTITLE0=Prolog
TTITLE1=Marsala's Strandgut
TTITLE2=Urban Ways
TTITLE3=Poetry
TTITLE4=Narragonia
TTITLE5=Sweet Lotus Suite
TTITLE6=Rrrr.
TTITLE7=Maris
EXTD=YEAR: 2012
EXTT0=
EXTT1=
EXTT2=
EXTT3=
EXTT4=
EXTT5=
EXTT6=
EXTT7=
PLAYORDER=
